
<svg xmlns="http://www.w3.org/2000/svg" version="1.1" xmlns:xlink="http://www.w3.org/1999/xlink" preserveAspectRatio="none" x="0px" y="0px" width="36px" height="36px" viewBox="0 0 36 36">
<defs>
<g id="Layer0_0_FILL">
<path fill="#C1694F" stroke="none" d="
M 25.9 15.2
Q 24.35 9 19.8 5.5 15.2 2 10.3 3.25 5.35 4.5 2.95 9.75 0.5 14.95 2.05 21.15 3.6 27.35 8.15 30.85 12.75 34.35 17.7 33.1 22.6 31.85 25.05 26.65 27.45 21.4 25.9 15.2 Z"/>
</g>

<g id="Layer0_1_FILL">
<path fill="#C1694F" stroke="none" d="
M 34.1 13.2
Q 32.3 6.05 25.2 3.4 19.05 1.1 11.75 2.9 5.55 4.45 3.25 9.65 1.15 14.4 2.8 20.95 4.45 27.5 8.5 30.75 12.95 34.25 19.15 32.7 26.3 31 30.8 25.75 35.8 19.95 34.1 13.2 Z"/>
</g>

<g id="Layer0_2_FILL">
<path fill="#F1BA21" stroke="none" d="
M 24.4 15.6
Q 23.1 10.2 19.1 7.1 15.1 4.05 10.75 5.1 6.4 6.2 4.3 10.75 2.2 15.35 3.55 20.75 4.85 26.15 8.9 29.25 12.9 32.3 17.2 31.25 21.55 30.15 23.65 25.6 25.75 21 24.4 15.6 Z"/>
</g>

<g id="Layer0_3_FILL">
<path fill="#FFD458" stroke="none" d="
M 19.95 7.85
Q 16.7 4.85 12.85 4.85 11.9 4.85 10.75 5.1 6.4 6.2 4.3 10.75 2.2 15.35 3.55 20.75 4.7 25.45 8 28.5 11.25 31.5 15.1 31.5 16.05 31.5 17.2 31.25 21.55 30.15 23.65 25.6 25.75 21 24.4 15.6 23.25 10.9 19.95 7.85
M 11 6.1
Q 12 5.85 12.85 5.85 16.35 5.85 19.35 8.65 22.35 11.5 23.45 15.8 24.7 20.9 22.75 25.15 20.8 29.3 17 30.25 15.9 30.5 15.1 30.5 11.6 30.5 8.6 27.7 5.6 24.85 4.5 20.5 3.25 15.5 5.15 11.3 7.05 7.1 11 6.1 Z"/>
</g>

<g id="Layer0_4_MEMBER_0_FILL">
<path fill="#FFD458" stroke="none" d="
M 18.95 18.55
L 15.9 16.85 16.9 12.85 14.25 14.6 12.9 10.3 12.2 14.45 9.25 12.35 10.9 16.5 8.1 17.8 11.15 19.5 10.15 23.5 12.8 21.75 14.15 25.85 14.85 21.7 17.8 24 16.15 19.85 18.95 18.55 Z"/>
</g>

<g id="Layer0_4_MEMBER_1_FILL">
<path fill="#FFD458" stroke="none" d="
M 17.5 12.05
Q 16.95 11.65 16.35 12.05
L 14.8 13.05 13.85 10
Q 13.6 9.3 12.8 9.3 12 9.4 11.9 10.15
L 11.45 12.75 9.8 11.55
Q 9.2 11.1 8.6 11.55 8.05 12 8.3 12.75
L 9.6 16 7.65 16.9
Q 7.1 17.2 7.1 17.8 7.1 18.4 7.6 18.7
L 9.95 20 9.15 23.25
Q 9 23.9 9.55 24.3 10.1 24.7 10.7 24.35
L 12.25 23.3 13.2 26.15
Q 13.45 26.85 14.15 26.85
L 14.25 26.85
Q 15 26.75 15.15 26
L 15.55 23.5 17.2 24.8
Q 17.85 25.25 18.4 24.8 19 24.35 18.75 23.65
L 17.45 20.35 19.35 19.45
Q 19.95 19.2 19.95 18.6 19.95 18 19.45 17.65
L 17.05 16.35 17.9 13.1
Q 18.05 12.5 17.5 12.05
M 15.4 17.7
L 16.75 18.45 15.75 18.95
Q 15.4 19.1 15.25 19.5 15.1 19.85 15.2 20.2
L 15.5 20.9 15.45 20.9
Q 14.95 20.5 14.5 20.75 13.9 21 13.85 21.5
L 13.85 21.75 13.7 21.45
Q 13.6 21 13.1 20.8
L 12.8 20.75
Q 12.5 20.75 12.25 20.9
L 11.75 21.25 12.1 19.75
Q 12.3 19 11.6 18.65
L 10.3 17.9 11.3 17.4
Q 11.65 17.25 11.8 16.9 11.95 16.55 11.8 16.15
L 11.45 15.15 11.6 15.3
Q 12.1 15.65 12.55 15.4 13.05 15.2 13.2 14.65
L 13.2 14.55 13.3 14.9
Q 13.45 15.4 13.95 15.55 14.4 15.7 14.8 15.45
L 15.3 15.1 14.95 16.6
Q 14.8 17.35 15.4 17.7 Z"/>
</g>

<g id="Layer0_5_MEMBER_0_FILL">
<path fill="#FFE88C" stroke="none" d="
M 13.8 15.65
L 12.9 13 12.55 15.55 10.7 14.3 11.75 16.8 10.05 17.65 11.95 18.65 11.4 21.1 13 20.05 13.9 22.65 14.3 20.1 16.15 21.4 15.05 18.85 16.75 18.05 14.85 17 15.45 14.55 13.8 15.65 Z"/>
</g>

<g id="Layer0_5_MEMBER_1_FILL">
<path fill="#FFE88C" stroke="none" d="
M 9.85 17.2
Q 9.55 17.3 9.55 17.6 9.55 17.95 9.8 18.05
L 11.4 18.95 10.9 21
Q 10.8 21.3 11.1 21.5 11.4 21.75 11.65 21.5
L 12.75 20.8 13.45 22.8
Q 13.5 23.15 13.9 23.15
L 13.95 23.15
Q 14.3 23.15 14.4 22.75
L 14.65 21 15.85 21.8
Q 16.15 22.05 16.45 21.8 16.75 21.5 16.6 21.2
L 15.7 19.1 17 18.5
Q 17.25 18.35 17.25 18.05 17.25 17.75 17 17.6
L 15.45 16.75 15.9 14.7
Q 16 14.35 15.7 14.15 15.45 13.95 15.15 14.15
L 14.1 14.85 13.4 12.85
Q 13.25 12.5 12.85 12.5 12.45 12.6 12.4 12.95
L 12.15 14.7 10.95 13.85
Q 10.65 13.65 10.35 13.9 10.15 14.15 10.2 14.5
L 11.1 16.6 9.85 17.2
M 12.2 18.25
L 11.15 17.65 12 17.25
Q 12.4 17.05 12.2 16.65
L 11.8 15.7 12.25 16
Q 12.45 16.15 12.75 16.05 12.95 15.9 13.05 15.65
L 13.1 15.1 13.35 15.8
Q 13.45 16.1 13.65 16.1 13.9 16.2 14.1 16.05
L 14.65 15.7 14.35 16.9
Q 14.25 17.25 14.6 17.45
L 15.65 18 14.85 18.4
Q 14.4 18.6 14.6 19.05
L 15 20 14.55 19.7
Q 14.4 19.55 14.1 19.65 13.8 19.75 13.8 20.05
L 13.7 20.55 13.45 19.85
Q 13.4 19.65 13.15 19.55
L 13 19.55 12.7 19.6 12.15 20 12.45 18.8
Q 12.55 18.4 12.2 18.25 Z"/>
</g>

<g id="Layer0_6_FILL">
<path fill="#292F33" stroke="none" d="
M 19.15 21.35
Q 19.6 20.9 19.05 20.25 18.45 19.65 17.95 20.05 17.5 20.5 18.05 21.15 18.7 21.8 19.15 21.35
M 16.55 24.15
Q 16.1 23.25 15.55 23.5 15.3 23.6 15.25 23.95 15.15 24.35 15.35 24.7 15.8 25.6 16.35 25.3 17 25.05 16.55 24.15
M 13.35 21.95
Q 13.55 21 12.95 20.85 12.3 20.7 12.05 21.65 11.95 22.05 12.05 22.4 12.2 22.7 12.45 22.75 13.1 22.95 13.35 21.95
M 12.35 14.95
Q 12.75 14.75 12.4 14.1 12.05 13.4 11.7 13.6 11.3 13.8 11.65 14.45 11.9 15.15 12.35 14.95
M 17.65 16.45
Q 18.2 15.95 17.95 15.6 17.6 15.35 17.1 15.85 16.55 16.4 16.85 16.7 17.15 17 17.65 16.45
M 7.6 21.4
Q 7.85 21.75 8.4 21.2 9 20.65 8.7 20.35 8.4 20.1 7.85 20.55 7.25 21.15 7.6 21.4
M 9.1 16.15
Q 9.65 15.9 9.3 15 8.85 14.1 8.25 14.35 8 14.45 7.95 14.8 7.9 15.2 8.1 15.55 8.45 16.45 9.1 16.15
M 16 12.05
Q 16.2 11.05 15.55 10.95 15.3 10.9 15.05 11.1 14.8 11.35 14.7 11.75 14.6 12.1 14.7 12.45 14.85 12.8 15.1 12.85 15.75 13.05 16 12.05 Z"/>
</g>
</defs>

<g transform="matrix( 1, 0, 0, 1, 0,0) ">
<use xlink:href="#Layer0_0_FILL"/>
</g>

<g transform="matrix( 1, 0, 0, 1, 0,0) ">
<use xlink:href="#Layer0_1_FILL"/>
</g>

<g transform="matrix( 1, 0, 0, 1, 0,0) ">
<use xlink:href="#Layer0_2_FILL"/>
</g>

<g transform="matrix( 1, 0, 0, 1, 0,0) ">
<use xlink:href="#Layer0_3_FILL"/>
</g>

<g transform="matrix( 1, 0, 0, 1, 0,0) ">
<use xlink:href="#Layer0_4_MEMBER_0_FILL"/>
</g>

<g transform="matrix( 1, 0, 0, 1, 0,0) ">
<use xlink:href="#Layer0_4_MEMBER_1_FILL"/>
</g>

<g transform="matrix( 1, 0, 0, 1, 0,0) ">
<use xlink:href="#Layer0_5_MEMBER_0_FILL"/>
</g>

<g transform="matrix( 1, 0, 0, 1, 0,0) ">
<use xlink:href="#Layer0_5_MEMBER_1_FILL"/>
</g>

<g transform="matrix( 1, 0, 0, 1, 0,0) ">
<use xlink:href="#Layer0_6_FILL"/>
</g>
</svg>
