
<svg xmlns="http://www.w3.org/2000/svg" version="1.1" xmlns:xlink="http://www.w3.org/1999/xlink" preserveAspectRatio="none" x="0px" y="0px" width="650px" height="650px" viewBox="0 0 650 650">
<defs>
<g id="Layer0_0_MEMBER_0_MEMBER_0_FILL">
<path fill="#000000" stroke="none" d="
M 600.8 87.85
Q 598.2 81.15 593.6 75 585.45 64.1 570 52.2 554.55 40.3 538.5 32.55 510.2 18.9 467.5 11.55 424.8 4.25 359.25 1.75
L 337.35 0.9
Q 330.6 0.7 244.65 0.35
L 158.5 0 149.95 5.85
Q 138.45 13.7 132.95 18.3 127.45 22.95 121.25 30 109.4 43.4 99.85 59.2 90.3 74.95 81.3 95.95 74.8 111.1 68.5 121.75 62.15 132.3 52.8 143.65 49.5 147.7 45.3 152.65 41.25 157.4 40.45 158.2 40.25 158.35 34.95 164.4 19.45 182.25 12.2 194.4 4.95 206.6 2.75 218.55 0.7 229.95 2.1 246.4 3.55 262.85 7.75 275.65 9.65 281.45 13.85 289.85 18.05 298.2 22.15 304.35 25.85 309.9 31.05 316.6 36.35 323.35 40.95 328.4 50 338.4 57.05 349.85 64.1 361.3 70.5 376.35 78.35 394.8 88.65 409.6 99 424.45 115.95 441.55 125.35 451.05 132.65 457.3 139.85 463.45 150.85 471.4 168.45 484.1 184.8 493.95 201.15 503.85 218.7 512.4 241.25 523.4 282.4 546.3 297.35 554.6 312.5 562.3 327.55 569.95 333.8 572.45 338.75 574.4 345.4 575.55 353.25 576.85 368.9 580.65 384.35 584.45 400.9 589.05 438.1 599.45 446.65 601.6 455.3 603.8 460.75 604.25 467.75 604.8 481.85 605.25 510.55 606.1 526.05 605.35 541.85 604.65 551.4 602 559.2 599.85 569.5 595 579.8 590.2 587.2 585.3 598.35 577.9 605.7 569.3 613.05 560.7 622.25 544.25
L 627.8 534.4 626.7 516.9
Q 625.25 494.05 624.7 482.55 624.15 471.55 623.65 455.65
L 623.1 438.05
Q 622.85 431.85 622.5 374.15
L 622.15 317.6 631.55 297.05
Q 645.1 267.15 647.75 258.1 650.35 249.1 650.85 230.7 651.6 200.05 647 182 644.2 171.35 639.25 163.65 634.25 156 625.85 149.5 621.05 145.8 618.5 143.1 615.85 140.35 613.1 136.15 608.65 129.35 606 119.6 603.4 109.85 603.4 100.1 603.4 94.5 600.8 87.85
M 580.65 83.75
Q 585.4 89.7 587.4 95.4 589.35 101.1 589.85 110.3 590.8 126.85 595.8 137.45 600.8 148.05 613.75 161 622.6 169.95 625.55 173.75 627.9 176.9 630.2 181.35 632.45 185.8 633.65 189.6 635.85 196.4 636.75 207.6 637.7 218.75 637 230.1 636.2 243.8 633.3 252.65 630.45 261.45 617.9 289.05
L 608.15 310.55 608.75 378.25
Q 609.25 435.85 609.95 458.85 610.65 481.35 612.65 504.9 613.95 520.6 611.3 528.6 610.15 532.1 607.2 538.15 604.25 544.2 602.1 547.5 589 567.8 564.85 579.3 555.7 583.7 548 585.5 540.4 587.35 525.15 588.85 517.65 589.55 498 589.85 478.35 590.15 472.1 589.6 465.75 589.05 460.05 587.7 454.25 586.3 431.75 579.85 394.85 569.25 378.05 564.8 361.45 560.4 348.45 557.75 340.35 556.1 333.8 553.3 326.6 550.25 312.25 543 298.05 535.8 287.8 530 267.6 518.6 248.55 508.45 229.3 498.2 221.75 494.9 210.45 489.9 186.95 475.35 163.45 460.8 148.85 449.75 128.4 434.25 111 412.5 93.55 390.7 85.05 370 80.45 358.85 74.5 348 68.55 337.15 63.45 330.6 56.2 321.4 56.9 320.75 57.3 320.35 60.9 321.35 68.6 323.55 68.6 322 68.6 321.15 64.95 318.6 61.25 316.05 57.6 314.35 47.9 309.9 40.35 301.7 32.7 293.5 26.65 281 19.1 265.5 16.75 249.4 14.35 233.25 17.7 220.1 20.75 208.15 35.15 187.75 49.6 167.35 57.8 163.45 67.3 159 96.9 155.8 109.2 154.55 109.55 154.2 109.7 154.05 108.25 153.95 106.8 153.85 104.55 153.85 98.15 153.85 83.2 153.5 68.3 153.15 68.1 153 67.9 152.8 71.4 148.6 74.6 144.85 77.25 140.85 79.7 137.05 84.4 127.25 89.2 117.3 93.45 107.05 103.2 83.7 113.35 67.05 123.5 50.35 135.1 38.65 139.95 33.75 143.5 30.9 147 28.05 155.15 22.55
L 164.6 16.2 233.35 16.05
Q 302.6 15.95 317.6 16.4 349.1 17.25 359.55 17.7
L 371.15 18.3
Q 399.3 19.5 424.3 22 449.1 24.45 459.1 27 462.35 27.85 464.45 28.9 466.55 30 466 30.55 464.2 32.35 437.45 31.85 412.95 31.45 390.8 29.7 368.85 27.95 354.65 25.3 297.75 14.7 244.7 32.35 230.4 37.1 218.25 43.45 206 49.85 190.1 60.85 170.2 74.65 156.05 86.35 141.95 98.05 143.4 99.5 144.05 100.15 148.9 96.85 153.7 93.55 160.85 87.6 180.2 71.45 208.25 55.6 236.3 39.75 257.6 32.9 271.1 28.55 285.6 26.9 300.1 25.2 316.75 26.1 327.35 26.65 338.6 27.8 349.95 28.95 367.9 31.25 383.4 33.25 390.15 34 396.65 34.65 406.1 35.35 414.2 35.95 430.55 36.05 447.1 36.15 464 35.65 485.6 35.05 498.45 36.8 511.25 38.55 523.8 43.8 538.5 49.95 555.75 62.05 572.95 74.2 580.65 83.75
M 230.95 477
Q 219.7 471.35 210.7 466.3 201.45 461.05 180.9 448.65 144.35 426.7 144.35 429.9 144.35 430.85 152.5 436.55 160.6 442.15 172.5 449.5 191.3 461.05 211.85 472.15 232.3 483.15 244.8 488.55 278.6 503.05 323.5 514.9 368.45 526.75 408.5 531.7 435.95 535.05 498.65 536
L 536.9 536.55 549.9 527.75
Q 573.55 511.75 577.5 508.05 579.35 506.25 580.75 503.65 582.2 501.05 582.55 498.75 582.85 496.95 582.55 488.55 582.25 480.1 581.9 480.45 581.7 480.7 580.85 487 580.15 492.9 579.15 495.7 577.8 499.35 574.5 502.8 569.45 508.15 544.4 525.2 532.25 533.45 530.85 533.55 529.6 533.55 518.9 533.2 507.7 532.8 501.35 532.5
L 474.3 531.4
Q 428.85 529.65 405.35 526.65 381.9 523.6 343.55 514.65 304.2 505.4 279.4 497.1 254.45 488.8 230.95 477
M 315.95 493.25
Q 293.6 484 288.95 481.9 273.2 474.95 254.9 465.9 236.5 456.85 220.4 448.05 203.55 438.85 192.8 433.55 182.05 428.3 180.15 428.3 179.1 428.35 179.2 428.6 179.35 428.9 180.95 430.35 182.85 432.1 192.35 437.8 201.6 443.35 211.7 448.9 235.5 461.85 258.55 473.05 281.55 484.2 299.45 491.5 322.25 500.8 335.95 504.1 349.6 507.4 371.45 508.95 388 510.1 410.2 511.15 432.4 512.2 444.5 512.4 455.85 512.55 468.65 512.25 481.6 511.95 488.15 511.35 498.85 510.4 506 508.65 513.2 506.95 519.2 503.95 530.35 498.35 540.65 489.4 550.95 480.4 552.5 474.9 552.8 473.85 552.7 473.55 552.65 473.25 552 473.25 549.75 473.25 538.95 483.75 528.9 493.55 521.6 497.95 514.3 502.3 503.6 504.9 496.2 506.7 487.6 507.35 479 508 462.9 508 443.7 508 431.25 507.35 412.4 506.45 360.35 503.55
L 337.9 502.3 315.95 493.25
M 49.9 184.7
Q 53.85 178.5 56.4 175.65 59.55 172.2 63.55 170.35 69.95 167.35 91.55 165.25
L 122.95 162.25 118.65 162
Q 112.15 161.6 94.45 161.75 76.7 161.95 74 162.45 60.45 164.95 52.45 173.25 48 177.85 43.4 185.8 38.75 193.7 37.2 199.4 35.85 204.25 35.4 212.6 34.9 220.95 35.2 235.05 35.9 268.85 41.1 280.95 44.1 287.9 49.75 292.95 54.8 297.5 64.25 302.4 70.85 305.85 74.1 307.05 76.05 307.75 77.75 308 79.4 308.3 79.4 307.9 79.4 306.65 76.25 304.35 73.15 302 64.8 297.05 57.25 292.55 53.8 289.65 50.4 286.75 47.5 282.35 42.45 274.75 40.5 261.95 38.6 249.15 38.95 225.65 39.1 214.4 39.35 210.9 39.55 207.35 40.35 204.45 42.5 196.45 49.9 184.7
M 450.2 487.9
L 453.7 487.55 449.3 487.15
Q 444.9 486.75 417.85 486.75 390.8 486.75 386.85 487.15
L 382.8 487.55 386.6 487.9
Q 390.65 488.2 418.75 488.2 447.05 488.25 450.2 487.9
M 295.35 242.9
Q 296.55 238.85 295.3 236.5 294.7 235.35 294.05 234.9 293.35 234.5 292 234.5 290.45 234.5 290.15 235.55 289.9 236.55 290.8 239.2 291.5 241.35 291.5 241.95 291.5 242.5 290.7 243.6 288.5 246.6 282.4 247.9 276.3 249.2 262.1 249.65 241.1 250.35 238.7 252.1 237.75 252.8 238.2 253.15 238.6 253.5 240.8 254 243.45 254.55 258.55 254.25 273.65 253.9 279.15 253.2 285.45 252.35 287.65 251.65 289.75 251 291.6 249.3 294.2 247 295.35 242.9
M 234.35 191.35
Q 229.7 194.65 223.8 197.4 214.75 201.6 207.7 202.65 200.65 203.75 193.2 202.05 175.25 197.85 150.8 184.7 142.05 179.95 137.3 178.55 124.3 174.8 107.95 176.65 91.55 178.5 82.8 184.7 79.85 186.75 75.8 190.75 71.75 194.7 69.5 197.7 56.15 215.5 56.15 241.35 56.1 251.7 58.2 262.65 60.3 273.55 63.3 278.8 64.65 281.15 66.6 283.4 68.55 285.7 69.9 286.55 73.2 288.6 75.3 285.75 76 284.8 76.2 283.6 76.4 282.45 76.35 279.25 76.3 275.45 75.4 270.75 74.5 265.8 71.55 253.7 69.25 244 69.7 238.2 70.15 232.45 73.95 222.95 76.9 215.45 83.1 207.1 86.8 202.1 90.15 199.6 93.45 197.15 98.9 195.25 105.1 193.15 112.7 192.3 120.3 191.5 125.75 192.3 129.55 192.85 131.6 193.65 133.65 194.4 135.45 196 138.5 198.65 149.8 204 161.1 209.4 170.45 212.6 203.6 223.95 228.6 213.95 240.3 209.25 250.05 199.45 259.85 189.6 259.9 182.45 259.95 179.75 259.05 178.45 258.15 177.2 255.75 176.55 253.05 175.85 250.85 177.05 248.65 178.25 243.8 183.2 239 188.05 234.35 191.35
M 173.3 172.5
Q 170.7 172.2 168.9 173.2 167.1 174.2 167.1 175.95 167.1 177.5 167.45 177.85 168.3 178.7 170.9 178 173.5 177.3 175.65 175.65 176.8 174.8 177 174.4 177.2 174.05 176.7 173.55 176 172.8 173.3 172.5
M 177.7 153.45
Q 177.5 153.3 168.75 154.65 159.85 156 155.45 156.9 149.3 158.15 147.55 159.5 145.8 160.85 147.7 162.85 150.45 165.8 155.25 167.05 157.5 167.65 164.35 167.85 171.2 168.1 170.65 167.55 170.4 167.2 164.3 165.65 158.3 164.2 157.95 163.85 157.05 162.95 169.1 157.55 177.95 153.7 177.7 153.45
M 452.65 317.45
Q 445.8 318.3 425.75 318.15 405.75 318.05 397.4 317.15 358.7 312.95 320.95 302.15 305.2 297.65 275.4 287.1 245.7 276.55 221.8 267 178.5 249.7 154.85 236.25 131.25 222.85 129.4 214.5 128 207.95 126.5 206.35 123.75 203.65 120.45 207.5 117.15 211.35 115.2 219.5 113.45 226.55 111.45 230.3 109.45 234.05 105.65 237.15 103.15 239.2 98.45 241.65 93.75 244.15 88.35 246.15 82.75 248.3 81.15 249.55 80 250.35 79.7 250.95 79.45 251.55 79.5 252.8 79.75 255.85 84.45 257.6 89.15 259.4 97 259.4 103.9 259.45 106.65 260.8 109.45 262.15 111.6 266.6 113.45 270.45 114.15 274.35 114.8 278.25 114.1 281.05 113.4 283.95 113.9 285.85 114.4 287.75 116.6 290.3 121.65 296.2 136.8 321.65 151.3 346.1 162.15 360.65 172.95 375.2 187.65 389.9 206.95 409.2 230.45 425.45 254 441.7 274.55 449.85 314.9 465.9 374.8 468.9
L 389.05 469.65
Q 393.4 469.95 417.2 469.65 441.05 469.35 448.05 468.9 493.2 466.1 518.4 459.35 544.95 452.3 557.85 437.6 570.7 422.85 575.5 394.05 579.95 367 579.3 327.75 578.6 288.45 573.3 267.1 571.95 261.7 570.8 259.05 569.6 256.35 567.7 254.25 564 250.25 562.7 241.9 560.8 229.7 557.05 228.75 554.7 228.2 553.15 230.5 551.6 232.8 550.45 238.4 549.2 244.35 548.7 249.4 546.85 265.75 540.85 275.5 534.8 285.3 520.85 294.55 506.35 304.15 490.45 309.5 474.55 314.85 452.65 317.45
M 445.05 361.25
Q 443.95 360.75 443.05 359.7 442.1 358.6 441.6 357.3 441.2 356.3 440.25 346.8 439.25 337.3 439.5 337.1 484.05 329.75 485.65 329.6 486.35 329.55 487 331.4 487.65 333.2 489.6 340.85 491.95 350.25 492.05 352.65 492.15 355.1 490.1 356.3 488.55 357.25 483.8 358.4 479.05 359.55 473.45 360.4 468.55 361.1 457.4 361.45 446.25 361.8 445.05 361.25
M 561.8 291.5
Q 562.45 294.1 561.85 294.65 560.8 295.7 559 292.1 557.25 288.45 556.45 283.65 556.25 282.3 556.35 281.95 556.4 281.55 556.85 281.7 557.6 281.95 559.4 285.5 561.15 289 561.8 291.5
M 542.45 299.05
Q 543.3 298.2 545.75 302.95 548.15 307.75 551.1 316.25 555.75 329.6 555.75 334.7 555.75 336.4 555.35 337.2 554.9 337.95 553.1 339.65 550.4 342.15 548.8 343 545.3 344.8 544.15 342.25 543 339.7 542 327.75 541.1 317.55 541.25 308.8 541.4 300.1 542.45 299.05
M 526.8 318
Q 528.75 324.45 528.25 333.25 527.75 342.05 525.1 348.95 523.95 352 522.8 353.05 521.7 354.1 519.35 354.4 516.25 354.8 514.85 355.25
L 511.6 356.2
Q 509.05 357 508.05 355.4 507 353.8 506.45 348.1 506 342.8 504.5 335.85 502.9 328.3 504.4 325.6 505.9 322.95 514.35 318.25 521.35 314.4 523.5 314.35 525.7 314.3 526.8 318
M 124.7 243.2
Q 126.5 241.95 130.9 243.2 138.9 245.45 163.55 259.65 180.05 269.15 183.35 271.2 186.55 273.2 186.6 273.95
L 187.15 282.4
Q 187.8 291.05 187.7 297.45 187.65 303.85 186.9 305.6 186.55 306.4 186.1 307 185.65 307.6 185.4 307.6 184.15 307.55 173.7 302.1 163.25 296.6 154.65 291.5 144.2 285.3 138.45 280.1 132.7 274.95 129.85 269.15 127.4 264.1 125.3 257.55 123.2 250.95 123.1 248.1 123 244.35 124.7 243.2
M 160.75 331.25
Q 147.15 310.55 148.25 309.5 148.9 308.75 162.7 315.85 174.5 321.9 179.8 325.85 185.15 329.7 187 333.7 189 338 189.65 346.5 190.3 355.05 188.85 357.9 188 359.75 186.1 361.05 184.25 362.25 183.85 362.25 183.45 362.25 181.15 359.7 174.3 351.95 160.75 331.25
M 201.5 291.8
Q 200.9 289.4 201 286.65 201.1 283.9 201.85 282.5 202.6 281.05 206.9 281.95 211.1 282.8 221.2 286.45 238.3 292.7 262.9 300.95 268.25 302.7 273.3 304.85 278.35 306.95 280.4 308.25 283.65 310.3 283.9 312.4 284.2 314.45 282.35 323
L 279.7 335.85
Q 279.05 339 278 340.3 276.45 342.25 273.05 341.35 269.65 340.4 257.5 334.8 244.95 329 239.4 326.85 233.75 324.65 228.6 323.55 225.2 322.8 222.75 321.15 220.2 319.45 216.4 315.4 211.2 309.8 206.95 303.1 202.7 296.35 201.5 291.8
M 200.35 380.5
Q 197.55 377.55 197.05 375.55 196.65 373.85 197.85 371.9 201.4 366.3 202.7 361.5 204 356.7 204.3 348.15
L 204.6 339.75 218.45 347
Q 233.65 354.95 242.15 358.85 250.55 362.7 258.25 365.25 264.15 367.2 266.05 368.35 267.95 369.5 269.3 371.95 272.05 376.8 270.05 386.45 268.1 396.05 260.9 412.9 259 417.4 257.4 420.7 255.85 423.95 255.6 423.95 255.05 423.95 247.2 417.85
L 226.35 401.8
Q 205.1 385.5 200.35 380.5
M 285.45 383
Q 285.8 374.15 285.9 374.15
L 292.45 376.9
Q 308.65 383.8 318.55 387.4 328.4 390.95 342.7 395.05 353.1 398.1 353.2 398.25 353.45 398.5 352.8 416.3 352.15 434.2 351.65 439.3 350.75 448.7 348.4 449.95 344.95 451.8 326.45 447.9 308 443.95 290.5 437.65 275.95 432.4 273.95 427.85 271.95 423.35 278.45 410.25 282.45 402.15 283.8 397 285.1 391.85 285.45 383
M 532.2 402.55
Q 534.35 401.15 534.6 403.3 534.85 405.4 533.3 411.5 531.25 419.65 531.25 423.45 531.25 427.3 533.35 428.65 534.15 429.2 535.15 429.3 536.15 429.4 538.45 429.15 542.2 428.75 542.2 429.3 542.2 430.05 538.55 433.1 534.9 436.15 532.55 437.4 529.45 439.1 525.55 439.7 522 440.2 518.3 441.6 512.9 443.75 512.7 441.85 512.5 440 516.9 428.85 520.65 419.4 525 411.9 529.35 404.45 532.2 402.55
M 556.05 407.45
Q 551.45 419.5 548.95 423.8 546.95 427.2 546.35 426.3 545.75 425.4 546.95 420.8 549.4 411.75 555.95 398.25 562.5 384.75 561.4 391.05 560.6 395.45 556.05 407.45
M 508.55 408.3
Q 508.75 408.8 507.65 411.05 500.6 426.85 498.85 431.9 497.1 436.95 497.05 441.55 496.95 445.85 496.6 446.5 496.3 447.05 492.9 447.5 489.35 447.9 484.65 449.1 478.35 450.7 477 450.75 475.65 450.8 475.65 449.35 475.65 447.9 479.75 434.8 483.8 421.65 485.15 418.85 487.05 414.8 488.25 413.75 489.4 412.7 492.5 412.15 496.15 411.5 502.2 409.7 508.4 407.9 508.55 408.3
M 449.65 413.45
Q 457.2 413.4 464 413.85 470.75 414.3 470.75 414.85 470.75 415.75 466.2 426.9 461.6 438.05 459.55 442.25 456.55 448.25 454.7 450.4 452.85 452.5 449.8 453.45 446.7 454.4 437.6 454.7 428.55 455 428.55 454.6 428.55 453.15 430.85 440.65 433.1 428.1 434 424.65 436.1 416.45 438.2 414.95 440.3 413.45 449.65 413.45
M 416.6 410.15
Q 419.1 411.45 419.25 415.55 419.45 419.65 417.4 431.4
L 414.95 445.9
Q 414.7 447.85 413.9 452
L 413.3 454.8 400.2 454.75
Q 386.25 454.7 377.85 454.1 369.6 453.5 368.25 452.5 366.7 451.35 366.15 442.95 365.6 434.5 366.25 422.6 367.2 404.95 369.2 402.95 369.75 402.45 370.75 402.55 371.8 402.65 375.05 403.55 379.5 404.8 386.75 405.95 393.85 407.1 400.95 407.7 414 408.85 416.6 410.15
M 364.7 330.4
Q 365 330.9 365.1 333.7
L 366.95 362.25 364.85 362.15
Q 358.25 361.9 352.75 361.7 336.4 361 320.8 357.6 315.25 356.35 308 354.15 300.7 351.95 298.6 350.85 295.4 349.25 294.45 346.6 293.45 343.95 294.2 339.05 294.8 335.25 296.7 327.05 298.6 318.85 299.15 317.85 300.25 315.85 307.45 317.1 314.65 318.3 347.35 326
L 361.7 329.35
Q 364.4 329.9 364.7 330.4
M 380.35 330.75
L 382.4 331.1
Q 389.05 332 395.5 332.8 420 335.8 422.35 336.8 423 337.05 423.45 338.05 423.9 339 424.4 341.25 425.2 344.85 426.6 352.5 428 360.3 428 361.3 428 361.95 424.45 362.1 420.95 362.25 404.15 362.25
L 380.35 362.25 380.35 330.75
M 362.2 262.8
Q 357 261.9 348.7 261.85 340.55 261.85 337.3 262.5 334 263.2 332.1 265.25 330.7 266.75 330.35 268.05 330 269.4 329.95 273.25 329.95 277.9 331.3 280.9 332.7 283.85 335.15 284.45
L 336.4 284.8
Q 336.8 284.95 338.2 283.95 339.6 282.95 340.85 281.6 341.7 280.75 342.85 279.95 344.05 279.15 344.95 278.9 347.2 278.2 360.9 277.85 366.7 277.7 371.15 277.4 375.5 277.1 376.1 276.85 380.25 275.15 379.1 271.85 377.95 268.6 372.35 266 367.4 263.7 362.2 262.8
M 339.85 245.75
Q 343.15 240.7 338.35 237.7 333.5 234.65 323.1 235.2 307.2 236 301.85 246.45 299.55 250.9 298.75 258.05 297.9 265.2 298.95 271.3 299.55 274.75 301 278.45 302.45 282.15 304 284.1 305 285.35 307.5 287.3 310 289.25 312.35 290.55 314.35 291.7 316.15 291.8 317.95 291.95 318.95 290.95 320.1 289.85 321 287.5 321.9 285.2 321.9 283.35 321.9 280.95 320.95 278.9 319.95 276.8 317.6 274.25 312.7 268.8 312.7 262.05 312.7 256.6 316.05 254.25 319.4 251.9 330 249.9 334.3 249.1 336.65 248.15 338.95 247.15 339.85 245.75
M 424.65 138.9
Q 424.75 146.05 425 145.65 425.2 145.45 426.65 134.35 428.05 123.7 429.65 117.2 431.25 110.7 433.65 106.05 436.1 101.35 436.1 100.3 436.1 99.25 435.2 99 434.25 98.75 432.95 99.4 428.35 101.8 426.3 111.5 424.25 121.25 424.65 138.9
M 325.65 194.2
Q 330.5 191.75 337.85 184.9 345.15 178.1 347 174.35 349.15 169.9 348.75 165.25 348.3 160.6 345.35 156.15 342.45 151.8 333.1 143.95 323.75 136.1 315.85 131.4 303.25 123.85 289.05 120.85 274.85 117.9 258.05 119.15 233.25 121.05 215.9 128.7 198.5 136.35 190.05 149.05 185.15 156.45 184.5 162.45 183.9 168.45 187.8 171.35 191.85 174.45 199.2 174.75 206.55 175 217.7 172.5 260 162.85 295.1 180.45 297.9 181.85 306.3 186.5 314.75 191.2 320 194.25 322 195.4 322.6 195.4 323.25 195.4 325.65 194.2
M 328.8 171
Q 327.6 172.2 326.75 172.6 325.85 173.05 324.25 173.15 321.6 173.35 318.6 172.25 315.6 171.2 307.35 167.05 296.35 161.6 291.3 159.65 286.2 157.65 281.85 157.1 278.9 156.7 277.65 155.7 276.45 154.7 276.45 152.7 276.45 150.95 278.1 143.35 279.75 135.7 280.25 135.2 281.7 133.75 294 139.35 306.4 144.9 315.8 151.25 321.55 155.1 326.15 160.1 330.75 165.1 330.75 167.5 330.75 169.05 328.8 171
M 218.35 153.7
Q 216 155.7 211.7 157.05 208.35 158.1 205.9 158.45 203.45 158.8 203.15 158.25 202.35 157 205.05 154.2 207.75 151.4 210.85 150.35 213.25 149.55 216.1 149.55 218.95 149.55 219.6 150.35 220.75 151.7 218.35 153.7
M 337.55 98.05
Q 336.35 93.25 334.05 88.7 331.75 84.1 329.05 81.2 326.7 78.65 324.4 77.2 322.1 75.75 321.65 76.5 321.15 77.3 322.05 79.25 322.95 81.15 326 85.75 331.75 94.35 334.05 100.8 336.4 107.2 336.9 116
L 337.3 123.25 337.95 117.85
Q 339.4 105.45 337.55 98.05
M 334 72.45
Q 336.9 71.7 334.25 70.65 331.55 69.55 325 68.85 320.7 68.35 305.15 68.25 289.6 68.15 284.45 68.55
L 276.2 69.15
Q 265.05 69.95 256.45 71.55 247.8 73.15 238.75 76.15 227.75 79.8 220.5 83.9 213.25 88 204.6 95.45 194.75 104 187.7 112 180.65 119.95 180.65 122.55 180.65 123.55 181.1 123.55 183 123.55 195.25 111.45 210.1 96.85 220.45 90.1 230.75 83.4 244.5 79.4 271.95 71.5 305.15 72.55 330.9 73.3 334 72.45
M 578.25 197.85
Q 568.45 195.15 557.5 195.7 547.8 196.25 542.6 198.65 537.35 201.05 525.15 210.7 518.3 216.1 515.3 216.65 512.3 217.15 506.1 214 497.45 209.6 494 209.6 490.55 209.55 489.1 213.85 488.2 216.55 489.75 220.55 491.3 224.55 494.25 227.05 497.05 229.4 500 230.6 502.95 231.8 508.95 232.9 513.65 233.75 521.6 233.9 529.65 234.05 532.15 233.35 534.3 232.8 535.85 231.05 537.35 229.35 538.75 226 541.7 218.8 546.75 215.35 553.75 210.5 563.45 210.95 573.1 211.4 580.85 217 585.55 220.35 589.1 220.95 592.65 221.55 594.7 219.35 597.2 216.75 596.65 212.85 596.15 208.95 592.9 205.55 588 200.6 578.25 197.85
M 583.5 182.9
Q 583.15 183.9 586.1 186.45 589.05 189 593.4 191.4 599.85 195 602.25 198.2 604.65 201.45 606.05 208.3 607.2 214.2 608.05 221.2 608.9 228.45 608.95 232.6 609.05 238.3 607.65 241.2 606.2 244.1 599.95 251.05 592.4 259.45 593.4 261.1 594.1 262.25 597.35 260.4 600.6 258.55 604.1 254.9 607.25 251.7 609.4 248.4 611.5 245.05 612.1 242.35 613.1 238 612.1 224.25 611.15 210.45 609.3 202.7 607.8 196.25 605.05 192.7 602.3 189.15 596.65 186.35 593.1 184.6 589.6 183.3 586.1 182 584.9 182 583.85 182 583.5 182.9
M 547.9 158.9
Q 541.95 157.35 538.55 159.45 535.15 161.55 539.8 163.85 541.35 164.65 544.8 164.8 548.2 164.95 563.85 165 585.8 165 587.7 165.45 590.55 166.15 593.15 168.05 595.8 169.95 600.95 175.2 607.95 182.3 613 185.7 620.8 191 624.4 198.55 627.95 206.05 628.6 218.55 628.95 224.45 628.3 230.4 627.7 236.25 625.85 244.8 623.1 257.55 620 261.65 616.95 265.7 605 272.4 586.6 282.7 586.6 285.2 586.6 285.7 587 285.8 587.4 285.9 588.6 285.65 593.9 284.7 606.05 278.4 618.2 272.1 622.1 268.35 623.5 267 624.25 265.6 625 264.2 626.05 261.05 629.55 250.3 631.8 235.65 634.05 221 633.15 214.55 632.2 207.45 627.65 196.8 623.05 186.15 620.25 184.45 615.35 181.5 604.35 171.15 596.65 164 592.05 162.45 587.5 160.9 574.2 160.9 555.5 160.9 547.9 158.9
M 514.3 142.3
Q 510.6 140.2 505.05 138.9 500.55 137.85 487.45 137.85 474.35 137.85 467.5 138.9 455.3 140.8 446.95 144.75 438.6 148.7 428.75 157.3 423.25 162.1 418.55 164.15 413.9 166.15 407.4 166.6 403.1 166.85 401.25 167.25 399.45 167.6 397.55 168.55 394.3 170.15 395.2 173.65 395.65 175.45 398.35 177.9 401.05 180.35 405.45 182.95 413.55 187.8 415.15 190.6 416.7 193.4 417.2 203.85 417.65 213.5 418.5 217.95 420.4 227 425.1 234.05 429.8 241.05 434.5 241.85 438 242.45 440.4 244.55 442.8 246.65 444.55 250.55 446.1 254 445.9 257.1 445.7 260.15 443.75 263.95 439.75 271.7 433.4 279.1 427.05 286.5 422.2 289.05 417.75 291.4 414.9 291.2 412.05 290.95 407.75 287.85 404.7 285.6 402.15 286.05 399.65 286.45 398.2 289.45 397.15 291.65 397.15 293.65 397.15 295.8 398.3 298.7 399.5 301.65 400.95 303.15 402.35 304.55 405.25 305.75 408.15 307 411.4 307.55 421.4 309.25 428.45 305.05 430.5 303.9 435.15 299.4 439.8 294.85 443.45 290.55 450.55 282.2 455.4 277.7 459.35 274.05 461.1 273.6 462.9 273.2 465.35 275.2 467.45 276.9 468.8 276.5 470.2 276.1 472.05 273.25 474.55 269.5 476.45 268.9 478.4 268.25 482.8 269.75 486 270.8 493.7 274.55 501.45 278.35 506.45 281.3 509.85 283.3 512.2 284.05 514.6 284.85 514.6 283.95 514.6 283.1 512.45 280.7 510.35 278.3 507.75 276.2 500.8 270.6 493.9 269.15 490.35 268.45 486.75 265.65 483.05 262.85 475.85 255.25 468.85 247.95 461.85 241.95 454.8 235.85 445.4 229.1 437.4 223.35 435.05 219.55 432.7 215.7 431.8 206.9 430.75 196.6 431.85 192.55 435.3 179.9 487.8 174.15 511.25 171.55 520.4 168.2 529.55 164.85 529.35 158.9 529.3 154.95 522.7 148.8 518 144.35 514.3 142.3
M 496.4 155.7
Q 491.8 156.1 486.15 155.8 480.5 155.55 480.5 154.95 480.5 154.45 483.65 154.1 486.85 153.7 491.05 153.7 494.95 153.7 497.75 154.05 500.5 154.4 500.5 154.9 500.5 155.35 496.4 155.7
M 500.9 81.1
Q 494.55 77.95 491.35 77.15 486.5 75.9 476.5 76.4 466.5 76.85 447.25 79.2 431.25 81.15 423.55 83.5 415.85 85.85 417.8 88.15 418.45 88.95 420.5 88.8 422.5 88.6 428.1 87.25 436.7 85.15 451 83.3 465.35 81.45 476.75 80.95 481.5 80.75 483.95 80.85 486.2 81 488.9 81.55 496.55 83.3 508.5 91.25 516.85 96.9 520.7 101.45 524.5 106 526.6 112.95 528 117.8 529.25 120.7 530.35 123 530.85 123 532.05 123 531.9 117.45 531.75 111.9 530.45 108.25 528.5 102.85 523.7 97.4 518.85 91.9 512.1 87.45 507.2 84.25 500.9 81.1
M 524.15 56.9
Q 522.85 55 520.85 53.85 515.9 51.1 504.8 50.75 493.75 50.45 474.85 52.5 456.7 54.55 447.15 55.05 437.6 55.6 419.9 55.6 398.95 55.6 386.7 54.5 374.4 53.45 359.25 50.25 345.6 47.4 335.85 46.55 326.05 45.65 309.75 45.85 294.35 46.05 282.7 47.3 270.95 48.55 258.95 51.3 239.3 55.85 218.8 66.85 198.2 77.85 181.85 92.6 176.3 97.6 169.45 105.9 162.55 114.25 161.95 116.7
L 161.55 118.2 163.1 117.4
Q 164.85 116.45 170.25 111.5 175.65 106.55 181 100.9 197.95 82.95 221.4 70.85 244.8 58.75 273.2 53.2 313.05 45.4 355.5 53.9 382.8 59.35 408.75 59.6 417.85 59.7 418.25 59.9 418.55 60.1 435.1 59.65 461.15 58.85 482.4 56.1 489.05 55.25 498.4 55 505 54.8 506.95 54.9 508.9 55 511.25 55.8 514.75 57 518.3 59.4 522 61.8 523.7 62.15 525 62.4 525.2 62.2 525.45 62 525.45 60.6 525.45 58.8 524.15 56.9 Z"/>

<path fill="#FFFFFF" stroke="none" d="
M 587.4 95.4
Q 585.4 89.7 580.65 83.75 572.95 74.2 555.75 62.05 538.5 49.95 523.8 43.8 511.25 38.55 498.45 36.8 485.6 35.05 464 35.65 447.1 36.15 430.55 36.05 414.2 35.95 406.1 35.35 396.65 34.65 390.15 34 383.4 33.25 367.9 31.25 349.95 28.95 338.6 27.8 327.35 26.65 316.75 26.1 300.1 25.2 285.6 26.9 271.1 28.55 257.6 32.9 236.3 39.75 208.25 55.6 180.2 71.45 160.85 87.6 153.7 93.55 148.9 96.85 144.05 100.15 143.4 99.5 141.95 98.05 156.05 86.35 170.2 74.65 190.1 60.85 206 49.85 218.25 43.45 230.4 37.1 244.7 32.35 297.75 14.7 354.65 25.3 368.85 27.95 390.8 29.7 412.95 31.45 437.45 31.85 464.2 32.35 466 30.55 466.55 30 464.45 28.9 462.35 27.85 459.1 27 449.1 24.45 424.3 22 399.3 19.5 371.15 18.3
L 359.55 17.7
Q 349.1 17.25 317.6 16.4 302.6 15.95 233.35 16.05
L 164.6 16.2 155.15 22.55
Q 147 28.05 143.5 30.9 139.95 33.75 135.1 38.65 123.5 50.35 113.35 67.05 103.2 83.7 93.45 107.05 89.2 117.3 84.4 127.25 79.7 137.05 77.25 140.85 74.6 144.85 71.4 148.6 67.9 152.8 68.1 153 68.3 153.15 83.2 153.5 98.15 153.85 104.55 153.85 106.8 153.85 108.25 153.95 109.7 154.05 109.55 154.2 109.2 154.55 96.9 155.8 67.3 159 57.8 163.45 49.6 167.35 35.15 187.75 20.75 208.15 17.7 220.1 14.35 233.25 16.75 249.4 19.1 265.5 26.65 281 32.7 293.5 40.35 301.7 47.9 309.9 57.6 314.35 61.25 316.05 64.95 318.6 68.6 321.15 68.6 322 68.6 323.55 60.9 321.35 57.3 320.35 56.9 320.75 56.2 321.4 63.45 330.6 68.55 337.15 74.5 348 80.45 358.85 85.05 370 93.55 390.7 111 412.5 128.4 434.25 148.85 449.75 163.45 460.8 186.95 475.35 210.45 489.9 221.75 494.9 229.3 498.2 248.55 508.45 267.6 518.6 287.8 530 298.05 535.8 312.25 543 326.6 550.25 333.8 553.3 340.35 556.1 348.45 557.75 361.45 560.4 378.05 564.8 394.85 569.25 431.75 579.85 454.25 586.3 460.05 587.7 465.75 589.05 472.1 589.6 478.35 590.15 498 589.85 517.65 589.55 525.15 588.85 540.4 587.35 548 585.5 555.7 583.7 564.85 579.3 589 567.8 602.1 547.5 604.25 544.2 607.2 538.15 610.15 532.1 611.3 528.6 613.95 520.6 612.65 504.9 610.65 481.35 609.95 458.85 609.25 435.85 608.75 378.25
L 608.15 310.55 617.9 289.05
Q 630.45 261.45 633.3 252.65 636.2 243.8 637 230.1 637.7 218.75 636.75 207.6 635.85 196.4 633.65 189.6 632.45 185.8 630.2 181.35 627.9 176.9 625.55 173.75 622.6 169.95 613.75 161 600.8 148.05 595.8 137.45 590.8 126.85 589.85 110.3 589.35 101.1 587.4 95.4
M 520.85 53.85
Q 522.85 55 524.15 56.9 525.45 58.8 525.45 60.6 525.45 62 525.2 62.2 525 62.4 523.7 62.15 522 61.8 518.3 59.4 514.75 57 511.25 55.8 508.9 55 506.95 54.9 505 54.8 498.4 55 489.05 55.25 482.4 56.1 461.15 58.85 435.1 59.65 418.55 60.1 418.25 59.9 417.85 59.7 408.75 59.6 382.8 59.35 355.5 53.9 313.05 45.4 273.2 53.2 244.8 58.75 221.4 70.85 197.95 82.95 181 100.9 175.65 106.55 170.25 111.5 164.85 116.45 163.1 117.4
L 161.55 118.2 161.95 116.7
Q 162.55 114.25 169.45 105.9 176.3 97.6 181.85 92.6 198.2 77.85 218.8 66.85 239.3 55.85 258.95 51.3 270.95 48.55 282.7 47.3 294.35 46.05 309.75 45.85 326.05 45.65 335.85 46.55 345.6 47.4 359.25 50.25 374.4 53.45 386.7 54.5 398.95 55.6 419.9 55.6 437.6 55.6 447.15 55.05 456.7 54.55 474.85 52.5 493.75 50.45 504.8 50.75 515.9 51.1 520.85 53.85
M 491.35 77.15
Q 494.55 77.95 500.9 81.1 507.2 84.25 512.1 87.45 518.85 91.9 523.7 97.4 528.5 102.85 530.45 108.25 531.75 111.9 531.9 117.45 532.05 123 530.85 123 530.35 123 529.25 120.7 528 117.8 526.6 112.95 524.5 106 520.7 101.45 516.85 96.9 508.5 91.25 496.55 83.3 488.9 81.55 486.2 81 483.95 80.85 481.5 80.75 476.75 80.95 465.35 81.45 451 83.3 436.7 85.15 428.1 87.25 422.5 88.6 420.5 88.8 418.45 88.95 417.8 88.15 415.85 85.85 423.55 83.5 431.25 81.15 447.25 79.2 466.5 76.85 476.5 76.4 486.5 75.9 491.35 77.15
M 505.05 138.9
Q 510.6 140.2 514.3 142.3 518 144.35 522.7 148.8 529.3 154.95 529.35 158.9 529.55 164.85 520.4 168.2 511.25 171.55 487.8 174.15 435.3 179.9 431.85 192.55 430.75 196.6 431.8 206.9 432.7 215.7 435.05 219.55 437.4 223.35 445.4 229.1 454.8 235.85 461.85 241.95 468.85 247.95 475.85 255.25 483.05 262.85 486.75 265.65 490.35 268.45 493.9 269.15 500.8 270.6 507.75 276.2 510.35 278.3 512.45 280.7 514.6 283.1 514.6 283.95 514.6 284.85 512.2 284.05 509.85 283.3 506.45 281.3 501.45 278.35 493.7 274.55 486 270.8 482.8 269.75 478.4 268.25 476.45 268.9 474.55 269.5 472.05 273.25 470.2 276.1 468.8 276.5 467.45 276.9 465.35 275.2 462.9 273.2 461.1 273.6 459.35 274.05 455.4 277.7 450.55 282.2 443.45 290.55 439.8 294.85 435.15 299.4 430.5 303.9 428.45 305.05 421.4 309.25 411.4 307.55 408.15 307 405.25 305.75 402.35 304.55 400.95 303.15 399.5 301.65 398.3 298.7 397.15 295.8 397.15 293.65 397.15 291.65 398.2 289.45 399.65 286.45 402.15 286.05 404.7 285.6 407.75 287.85 412.05 290.95 414.9 291.2 417.75 291.4 422.2 289.05 427.05 286.5 433.4 279.1 439.75 271.7 443.75 263.95 445.7 260.15 445.9 257.1 446.1 254 444.55 250.55 442.8 246.65 440.4 244.55 438 242.45 434.5 241.85 429.8 241.05 425.1 234.05 420.4 227 418.5 217.95 417.65 213.5 417.2 203.85 416.7 193.4 415.15 190.6 413.55 187.8 405.45 182.95 401.05 180.35 398.35 177.9 395.65 175.45 395.2 173.65 394.3 170.15 397.55 168.55 399.45 167.6 401.25 167.25 403.1 166.85 407.4 166.6 413.9 166.15 418.55 164.15 423.25 162.1 428.75 157.3 438.6 148.7 446.95 144.75 455.3 140.8 467.5 138.9 474.35 137.85 487.45 137.85 500.55 137.85 505.05 138.9
M 538.55 159.45
Q 541.95 157.35 547.9 158.9 555.5 160.9 574.2 160.9 587.5 160.9 592.05 162.45 596.65 164 604.35 171.15 615.35 181.5 620.25 184.45 623.05 186.15 627.65 196.8 632.2 207.45 633.15 214.55 634.05 221 631.8 235.65 629.55 250.3 626.05 261.05 625 264.2 624.25 265.6 623.5 267 622.1 268.35 618.2 272.1 606.05 278.4 593.9 284.7 588.6 285.65 587.4 285.9 587 285.8 586.6 285.7 586.6 285.2 586.6 282.7 605 272.4 616.95 265.7 620 261.65 623.1 257.55 625.85 244.8 627.7 236.25 628.3 230.4 628.95 224.45 628.6 218.55 627.95 206.05 624.4 198.55 620.8 191 613 185.7 607.95 182.3 600.95 175.2 595.8 169.95 593.15 168.05 590.55 166.15 587.7 165.45 585.8 165 563.85 165 548.2 164.95 544.8 164.8 541.35 164.65 539.8 163.85 535.15 161.55 538.55 159.45
M 586.1 186.45
Q 583.15 183.9 583.5 182.9 583.85 182 584.9 182 586.1 182 589.6 183.3 593.1 184.6 596.65 186.35 602.3 189.15 605.05 192.7 607.8 196.25 609.3 202.7 611.15 210.45 612.1 224.25 613.1 238 612.1 242.35 611.5 245.05 609.4 248.4 607.25 251.7 604.1 254.9 600.6 258.55 597.35 260.4 594.1 262.25 593.4 261.1 592.4 259.45 599.95 251.05 606.2 244.1 607.65 241.2 609.05 238.3 608.95 232.6 608.9 228.45 608.05 221.2 607.2 214.2 606.05 208.3 604.65 201.45 602.25 198.2 599.85 195 593.4 191.4 589.05 189 586.1 186.45
M 557.5 195.7
Q 568.45 195.15 578.25 197.85 588 200.6 592.9 205.55 596.15 208.95 596.65 212.85 597.2 216.75 594.7 219.35 592.65 221.55 589.1 220.95 585.55 220.35 580.85 217 573.1 211.4 563.45 210.95 553.75 210.5 546.75 215.35 541.7 218.8 538.75 226 537.35 229.35 535.85 231.05 534.3 232.8 532.15 233.35 529.65 234.05 521.6 233.9 513.65 233.75 508.95 232.9 502.95 231.8 500 230.6 497.05 229.4 494.25 227.05 491.3 224.55 489.75 220.55 488.2 216.55 489.1 213.85 490.55 209.55 494 209.6 497.45 209.6 506.1 214 512.3 217.15 515.3 216.65 518.3 216.1 525.15 210.7 537.35 201.05 542.6 198.65 547.8 196.25 557.5 195.7
M 334.25 70.65
Q 336.9 71.7 334 72.45 330.9 73.3 305.15 72.55 271.95 71.5 244.5 79.4 230.75 83.4 220.45 90.1 210.1 96.85 195.25 111.45 183 123.55 181.1 123.55 180.65 123.55 180.65 122.55 180.65 119.95 187.7 112 194.75 104 204.6 95.45 213.25 88 220.5 83.9 227.75 79.8 238.75 76.15 247.8 73.15 256.45 71.55 265.05 69.95 276.2 69.15
L 284.45 68.55
Q 289.6 68.15 305.15 68.25 320.7 68.35 325 68.85 331.55 69.55 334.25 70.65
M 334.05 88.7
Q 336.35 93.25 337.55 98.05 339.4 105.45 337.95 117.85
L 337.3 123.25 336.9 116
Q 336.4 107.2 334.05 100.8 331.75 94.35 326 85.75 322.95 81.15 322.05 79.25 321.15 77.3 321.65 76.5 322.1 75.75 324.4 77.2 326.7 78.65 329.05 81.2 331.75 84.1 334.05 88.7
M 337.85 184.9
Q 330.5 191.75 325.65 194.2 323.25 195.4 322.6 195.4 322 195.4 320 194.25 314.75 191.2 306.3 186.5 297.9 181.85 295.1 180.45 260 162.85 217.7 172.5 206.55 175 199.2 174.75 191.85 174.45 187.8 171.35 183.9 168.45 184.5 162.45 185.15 156.45 190.05 149.05 198.5 136.35 215.9 128.7 233.25 121.05 258.05 119.15 274.85 117.9 289.05 120.85 303.25 123.85 315.85 131.4 323.75 136.1 333.1 143.95 342.45 151.8 345.35 156.15 348.3 160.6 348.75 165.25 349.15 169.9 347 174.35 345.15 178.1 337.85 184.9
M 425 145.65
Q 424.75 146.05 424.65 138.9 424.25 121.25 426.3 111.5 428.35 101.8 432.95 99.4 434.25 98.75 435.2 99 436.1 99.25 436.1 100.3 436.1 101.35 433.65 106.05 431.25 110.7 429.65 117.2 428.05 123.7 426.65 134.35 425.2 145.45 425 145.65
M 338.35 237.7
Q 343.15 240.7 339.85 245.75 338.95 247.15 336.65 248.15 334.3 249.1 330 249.9 319.4 251.9 316.05 254.25 312.7 256.6 312.7 262.05 312.7 268.8 317.6 274.25 319.95 276.8 320.95 278.9 321.9 280.95 321.9 283.35 321.9 285.2 321 287.5 320.1 289.85 318.95 290.95 317.95 291.95 316.15 291.8 314.35 291.7 312.35 290.55 310 289.25 307.5 287.3 305 285.35 304 284.1 302.45 282.15 301 278.45 299.55 274.75 298.95 271.3 297.9 265.2 298.75 258.05 299.55 250.9 301.85 246.45 307.2 236 323.1 235.2 333.5 234.65 338.35 237.7
M 348.7 261.85
Q 357 261.9 362.2 262.8 367.4 263.7 372.35 266 377.95 268.6 379.1 271.85 380.25 275.15 376.1 276.85 375.5 277.1 371.15 277.4 366.7 277.7 360.9 277.85 347.2 278.2 344.95 278.9 344.05 279.15 342.85 279.95 341.7 280.75 340.85 281.6 339.6 282.95 338.2 283.95 336.8 284.95 336.4 284.8
L 335.15 284.45
Q 332.7 283.85 331.3 280.9 329.95 277.9 329.95 273.25 330 269.4 330.35 268.05 330.7 266.75 332.1 265.25 334 263.2 337.3 262.5 340.55 261.85 348.7 261.85
M 425.75 318.15
Q 445.8 318.3 452.65 317.45 474.55 314.85 490.45 309.5 506.35 304.15 520.85 294.55 534.8 285.3 540.85 275.5 546.85 265.75 548.7 249.4 549.2 244.35 550.45 238.4 551.6 232.8 553.15 230.5 554.7 228.2 557.05 228.75 560.8 229.7 562.7 241.9 564 250.25 567.7 254.25 569.6 256.35 570.8 259.05 571.95 261.7 573.3 267.1 578.6 288.45 579.3 327.75 579.95 367 575.5 394.05 570.7 422.85 557.85 437.6 544.95 452.3 518.4 459.35 493.2 466.1 448.05 468.9 441.05 469.35 417.2 469.65 393.4 469.95 389.05 469.65
L 374.8 468.9
Q 314.9 465.9 274.55 449.85 254 441.7 230.45 425.45 206.95 409.2 187.65 389.9 172.95 375.2 162.15 360.65 151.3 346.1 136.8 321.65 121.65 296.2 116.6 290.3 114.4 287.75 113.9 285.85 113.4 283.95 114.1 281.05 114.8 278.25 114.15 274.35 113.45 270.45 111.6 266.6 109.45 262.15 106.65 260.8 103.9 259.45 97 259.4 89.15 259.4 84.45 257.6 79.75 255.85 79.5 252.8 79.45 251.55 79.7 250.95 80 250.35 81.15 249.55 82.75 248.3 88.35 246.15 93.75 244.15 98.45 241.65 103.15 239.2 105.65 237.15 109.45 234.05 111.45 230.3 113.45 226.55 115.2 219.5 117.15 211.35 120.45 207.5 123.75 203.65 126.5 206.35 128 207.95 129.4 214.5 131.25 222.85 154.85 236.25 178.5 249.7 221.8 267 245.7 276.55 275.4 287.1 305.2 297.65 320.95 302.15 358.7 312.95 397.4 317.15 405.75 318.05 425.75 318.15
M 168.75 154.65
Q 177.5 153.3 177.7 153.45 177.95 153.7 169.1 157.55 157.05 162.95 157.95 163.85 158.3 164.2 164.3 165.65 170.4 167.2 170.65 167.55 171.2 168.1 164.35 167.85 157.5 167.65 155.25 167.05 150.45 165.8 147.7 162.85 145.8 160.85 147.55 159.5 149.3 158.15 155.45 156.9 159.85 156 168.75 154.65
M 168.9 173.2
Q 170.7 172.2 173.3 172.5 176 172.8 176.7 173.55 177.2 174.05 177 174.4 176.8 174.8 175.65 175.65 173.5 177.3 170.9 178 168.3 178.7 167.45 177.85 167.1 177.5 167.1 175.95 167.1 174.2 168.9 173.2
M 223.8 197.4
Q 229.7 194.65 234.35 191.35 239 188.05 243.8 183.2 248.65 178.25 250.85 177.05 253.05 175.85 255.75 176.55 258.15 177.2 259.05 178.45 259.95 179.75 259.9 182.45 259.85 189.6 250.05 199.45 240.3 209.25 228.6 213.95 203.6 223.95 170.45 212.6 161.1 209.4 149.8 204 138.5 198.65 135.45 196 133.65 194.4 131.6 193.65 129.55 192.85 125.75 192.3 120.3 191.5 112.7 192.3 105.1 193.15 98.9 195.25 93.45 197.15 90.15 199.6 86.8 202.1 83.1 207.1 76.9 215.45 73.95 222.95 70.15 232.45 69.7 238.2 69.25 244 71.55 253.7 74.5 265.8 75.4 270.75 76.3 275.45 76.35 279.25 76.4 282.45 76.2 283.6 76 284.8 75.3 285.75 73.2 288.6 69.9 286.55 68.55 285.7 66.6 283.4 64.65 281.15 63.3 278.8 60.3 273.55 58.2 262.65 56.1 251.7 56.15 241.35 56.15 215.5 69.5 197.7 71.75 194.7 75.8 190.75 79.85 186.75 82.8 184.7 91.55 178.5 107.95 176.65 124.3 174.8 137.3 178.55 142.05 179.95 150.8 184.7 175.25 197.85 193.2 202.05 200.65 203.75 207.7 202.65 214.75 201.6 223.8 197.4
M 295.3 236.5
Q 296.55 238.85 295.35 242.9 294.2 247 291.6 249.3 289.75 251 287.65 251.65 285.45 252.35 279.15 253.2 273.65 253.9 258.55 254.25 243.45 254.55 240.8 254 238.6 253.5 238.2 253.15 237.75 252.8 238.7 252.1 241.1 250.35 262.1 249.65 276.3 249.2 282.4 247.9 288.5 246.6 290.7 243.6 291.5 242.5 291.5 241.95 291.5 241.35 290.8 239.2 289.9 236.55 290.15 235.55 290.45 234.5 292 234.5 293.35 234.5 294.05 234.9 294.7 235.35 295.3 236.5
M 453.7 487.55
L 450.2 487.9
Q 447.05 488.25 418.75 488.2 390.65 488.2 386.6 487.9
L 382.8 487.55 386.85 487.15
Q 390.8 486.75 417.85 486.75 444.9 486.75 449.3 487.15
L 453.7 487.55
M 56.4 175.65
Q 53.85 178.5 49.9 184.7 42.5 196.45 40.35 204.45 39.55 207.35 39.35 210.9 39.1 214.4 38.95 225.65 38.6 249.15 40.5 261.95 42.45 274.75 47.5 282.35 50.4 286.75 53.8 289.65 57.25 292.55 64.8 297.05 73.15 302 76.25 304.35 79.4 306.65 79.4 307.9 79.4 308.3 77.75 308 76.05 307.75 74.1 307.05 70.85 305.85 64.25 302.4 54.8 297.5 49.75 292.95 44.1 287.9 41.1 280.95 35.9 268.85 35.2 235.05 34.9 220.95 35.4 212.6 35.85 204.25 37.2 199.4 38.75 193.7 43.4 185.8 48 177.85 52.45 173.25 60.45 164.95 74 162.45 76.7 161.95 94.45 161.75 112.15 161.6 118.65 162
L 122.95 162.25 91.55 165.25
Q 69.95 167.35 63.55 170.35 59.55 172.2 56.4 175.65
M 288.95 481.9
Q 293.6 484 315.95 493.25
L 337.9 502.3 360.35 503.55
Q 412.4 506.45 431.25 507.35 443.7 508 462.9 508 479 508 487.6 507.35 496.2 506.7 503.6 504.9 514.3 502.3 521.6 497.95 528.9 493.55 538.95 483.75 549.75 473.25 552 473.25 552.65 473.25 552.7 473.55 552.8 473.85 552.5 474.9 550.95 480.4 540.65 489.4 530.35 498.35 519.2 503.95 513.2 506.95 506 508.65 498.85 510.4 488.15 511.35 481.6 511.95 468.65 512.25 455.85 512.55 444.5 512.4 432.4 512.2 410.2 511.15 388 510.1 371.45 508.95 349.6 507.4 335.95 504.1 322.25 500.8 299.45 491.5 281.55 484.2 258.55 473.05 235.5 461.85 211.7 448.9 201.6 443.35 192.35 437.8 182.85 432.1 180.95 430.35 179.35 428.9 179.2 428.6 179.1 428.35 180.15 428.3 182.05 428.3 192.8 433.55 203.55 438.85 220.4 448.05 236.5 456.85 254.9 465.9 273.2 474.95 288.95 481.9
M 210.7 466.3
Q 219.7 471.35 230.95 477 254.45 488.8 279.4 497.1 304.2 505.4 343.55 514.65 381.9 523.6 405.35 526.65 428.85 529.65 474.3 531.4
L 501.35 532.5
Q 507.7 532.8 518.9 533.2 529.6 533.55 530.85 533.55 532.25 533.45 544.4 525.2 569.45 508.15 574.5 502.8 577.8 499.35 579.15 495.7 580.15 492.9 580.85 487 581.7 480.7 581.9 480.45 582.25 480.1 582.55 488.55 582.85 496.95 582.55 498.75 582.2 501.05 580.75 503.65 579.35 506.25 577.5 508.05 573.55 511.75 549.9 527.75
L 536.9 536.55 498.65 536
Q 435.95 535.05 408.5 531.7 368.45 526.75 323.5 514.9 278.6 503.05 244.8 488.55 232.3 483.15 211.85 472.15 191.3 461.05 172.5 449.5 160.6 442.15 152.5 436.55 144.35 430.85 144.35 429.9 144.35 426.7 180.9 448.65 201.45 461.05 210.7 466.3
M 382.4 331.1
L 380.35 330.75 380.35 362.25 404.15 362.25
Q 420.95 362.25 424.45 362.1 428 361.95 428 361.3 428 360.3 426.6 352.5 425.2 344.85 424.4 341.25 423.9 339 423.45 338.05 423 337.05 422.35 336.8 420 335.8 395.5 332.8 389.05 332 382.4 331.1
M 365.1 333.7
Q 365 330.9 364.7 330.4 364.4 329.9 361.7 329.35
L 347.35 326
Q 314.65 318.3 307.45 317.1 300.25 315.85 299.15 317.85 298.6 318.85 296.7 327.05 294.8 335.25 294.2 339.05 293.45 343.95 294.45 346.6 295.4 349.25 298.6 350.85 300.7 351.95 308 354.15 315.25 356.35 320.8 357.6 336.4 361 352.75 361.7 358.25 361.9 364.85 362.15
L 366.95 362.25 365.1 333.7
M 419.25 415.55
Q 419.1 411.45 416.6 410.15 414 408.85 400.95 407.7 393.85 407.1 386.75 405.95 379.5 404.8 375.05 403.55 371.8 402.65 370.75 402.55 369.75 402.45 369.2 402.95 367.2 404.95 366.25 422.6 365.6 434.5 366.15 442.95 366.7 451.35 368.25 452.5 369.6 453.5 377.85 454.1 386.25 454.7 400.2 454.75
L 413.3 454.8 413.9 452
Q 414.7 447.85 414.95 445.9
L 417.4 431.4
Q 419.45 419.65 419.25 415.55
M 464 413.85
Q 457.2 413.4 449.65 413.45 440.3 413.45 438.2 414.95 436.1 416.45 434 424.65 433.1 428.1 430.85 440.65 428.55 453.15 428.55 454.6 428.55 455 437.6 454.7 446.7 454.4 449.8 453.45 452.85 452.5 454.7 450.4 456.55 448.25 459.55 442.25 461.6 438.05 466.2 426.9 470.75 415.75 470.75 414.85 470.75 414.3 464 413.85
M 507.65 411.05
Q 508.75 408.8 508.55 408.3 508.4 407.9 502.2 409.7 496.15 411.5 492.5 412.15 489.4 412.7 488.25 413.75 487.05 414.8 485.15 418.85 483.8 421.65 479.75 434.8 475.65 447.9 475.65 449.35 475.65 450.8 477 450.75 478.35 450.7 484.65 449.1 489.35 447.9 492.9 447.5 496.3 447.05 496.6 446.5 496.95 445.85 497.05 441.55 497.1 436.95 498.85 431.9 500.6 426.85 507.65 411.05
M 548.95 423.8
Q 551.45 419.5 556.05 407.45 560.6 395.45 561.4 391.05 562.5 384.75 555.95 398.25 549.4 411.75 546.95 420.8 545.75 425.4 546.35 426.3 546.95 427.2 548.95 423.8
M 534.6 403.3
Q 534.35 401.15 532.2 402.55 529.35 404.45 525 411.9 520.65 419.4 516.9 428.85 512.5 440 512.7 441.85 512.9 443.75 518.3 441.6 522 440.2 525.55 439.7 529.45 439.1 532.55 437.4 534.9 436.15 538.55 433.1 542.2 430.05 542.2 429.3 542.2 428.75 538.45 429.15 536.15 429.4 535.15 429.3 534.15 429.2 533.35 428.65 531.25 427.3 531.25 423.45 531.25 419.65 533.3 411.5 534.85 405.4 534.6 403.3
M 285.9 374.15
Q 285.8 374.15 285.45 383 285.1 391.85 283.8 397 282.45 402.15 278.45 410.25 271.95 423.35 273.95 427.85 275.95 432.4 290.5 437.65 308 443.95 326.45 447.9 344.95 451.8 348.4 449.95 350.75 448.7 351.65 439.3 352.15 434.2 352.8 416.3 353.45 398.5 353.2 398.25 353.1 398.1 342.7 395.05 328.4 390.95 318.55 387.4 308.65 383.8 292.45 376.9
L 285.9 374.15
M 197.05 375.55
Q 197.55 377.55 200.35 380.5 205.1 385.5 226.35 401.8
L 247.2 417.85
Q 255.05 423.95 255.6 423.95 255.85 423.95 257.4 420.7 259 417.4 260.9 412.9 268.1 396.05 270.05 386.45 272.05 376.8 269.3 371.95 267.95 369.5 266.05 368.35 264.15 367.2 258.25 365.25 250.55 362.7 242.15 358.85 233.65 354.95 218.45 347
L 204.6 339.75 204.3 348.15
Q 204 356.7 202.7 361.5 201.4 366.3 197.85 371.9 196.65 373.85 197.05 375.55
M 201 286.65
Q 200.9 289.4 201.5 291.8 202.7 296.35 206.95 303.1 211.2 309.8 216.4 315.4 220.2 319.45 222.75 321.15 225.2 322.8 228.6 323.55 233.75 324.65 239.4 326.85 244.95 329 257.5 334.8 269.65 340.4 273.05 341.35 276.45 342.25 278 340.3 279.05 339 279.7 335.85
L 282.35 323
Q 284.2 314.45 283.9 312.4 283.65 310.3 280.4 308.25 278.35 306.95 273.3 304.85 268.25 302.7 262.9 300.95 238.3 292.7 221.2 286.45 211.1 282.8 206.9 281.95 202.6 281.05 201.85 282.5 201.1 283.9 201 286.65
M 148.25 309.5
Q 147.15 310.55 160.75 331.25 174.3 351.95 181.15 359.7 183.45 362.25 183.85 362.25 184.25 362.25 186.1 361.05 188 359.75 188.85 357.9 190.3 355.05 189.65 346.5 189 338 187 333.7 185.15 329.7 179.8 325.85 174.5 321.9 162.7 315.85 148.9 308.75 148.25 309.5
M 130.9 243.2
Q 126.5 241.95 124.7 243.2 123 244.35 123.1 248.1 123.2 250.95 125.3 257.55 127.4 264.1 129.85 269.15 132.7 274.95 138.45 280.1 144.2 285.3 154.65 291.5 163.25 296.6 173.7 302.1 184.15 307.55 185.4 307.6 185.65 307.6 186.1 307 186.55 306.4 186.9 305.6 187.65 303.85 187.7 297.45 187.8 291.05 187.15 282.4
L 186.6 273.95
Q 186.55 273.2 183.35 271.2 180.05 269.15 163.55 259.65 138.9 245.45 130.9 243.2
M 528.25 333.25
Q 528.75 324.45 526.8 318 525.7 314.3 523.5 314.35 521.35 314.4 514.35 318.25 505.9 322.95 504.4 325.6 502.9 328.3 504.5 335.85 506 342.8 506.45 348.1 507 353.8 508.05 355.4 509.05 357 511.6 356.2
L 514.85 355.25
Q 516.25 354.8 519.35 354.4 521.7 354.1 522.8 353.05 523.95 352 525.1 348.95 527.75 342.05 528.25 333.25
M 545.75 302.95
Q 543.3 298.2 542.45 299.05 541.4 300.1 541.25 308.8 541.1 317.55 542 327.75 543 339.7 544.15 342.25 545.3 344.8 548.8 343 550.4 342.15 553.1 339.65 554.9 337.95 555.35 337.2 555.75 336.4 555.75 334.7 555.75 329.6 551.1 316.25 548.15 307.75 545.75 302.95
M 561.85 294.65
Q 562.45 294.1 561.8 291.5 561.15 289 559.4 285.5 557.6 281.95 556.85 281.7 556.4 281.55 556.35 281.95 556.25 282.3 556.45 283.65 557.25 288.45 559 292.1 560.8 295.7 561.85 294.65
M 443.05 359.7
Q 443.95 360.75 445.05 361.25 446.25 361.8 457.4 361.45 468.55 361.1 473.45 360.4 479.05 359.55 483.8 358.4 488.55 357.25 490.1 356.3 492.15 355.1 492.05 352.65 491.95 350.25 489.6 340.85 487.65 333.2 487 331.4 486.35 329.55 485.65 329.6 484.05 329.75 439.5 337.1 439.25 337.3 440.25 346.8 441.2 356.3 441.6 357.3 442.1 358.6 443.05 359.7
M 211.7 157.05
Q 216 155.7 218.35 153.7 220.75 151.7 219.6 150.35 218.95 149.55 216.1 149.55 213.25 149.55 210.85 150.35 207.75 151.4 205.05 154.2 202.35 157 203.15 158.25 203.45 158.8 205.9 158.45 208.35 158.1 211.7 157.05
M 326.75 172.6
Q 327.6 172.2 328.8 171 330.75 169.05 330.75 167.5 330.75 165.1 326.15 160.1 321.55 155.1 315.8 151.25 306.4 144.9 294 139.35 281.7 133.75 280.25 135.2 279.75 135.7 278.1 143.35 276.45 150.95 276.45 152.7 276.45 154.7 277.65 155.7 278.9 156.7 281.85 157.1 286.2 157.65 291.3 159.65 296.35 161.6 307.35 167.05 315.6 171.2 318.6 172.25 321.6 173.35 324.25 173.15 325.85 173.05 326.75 172.6
M 486.15 155.8
Q 491.8 156.1 496.4 155.7 500.5 155.35 500.5 154.9 500.5 154.4 497.75 154.05 494.95 153.7 491.05 153.7 486.85 153.7 483.65 154.1 480.5 154.45 480.5 154.95 480.5 155.55 486.15 155.8 Z"/>
</g>
</defs>

<g transform="matrix( 0.9931182861328125, 0, 0, 0.8666229248046875, 1,62.55) ">
<use xlink:href="#Layer0_0_MEMBER_0_MEMBER_0_FILL"/>
</g>
</svg>
